<svg xmlns="http://www.w3.org/2000/svg" viewBox="0 0 459.2 104.39"><defs><style>.cls-1,.cls-2{fill:#498dff;}.cls-1{fill-rule:evenodd;}</style></defs><title>logofbb</title><g id="图层_2" data-name="图层 2"><g id="图层_1-2" data-name="图层 1"><path id="_" data-name=" " class="cls-1" d="M98.24,104,59,5.78H39.3L0,104H22.41L49.12,35.25l19,49.11H41.56V104ZM79.84,10.21v7.72H90.06V28.14h7.72V17.93H108V10.21H97.78V0H90.06V10.21H79.84Z"/><path class="cls-2" d="M152.92,99.75l-11-4.64q6.75-17.3,13.5-41.34c.84.28,2.25.84,4.22,1.69L166,58Q162.2,71.07,152.92,99.75Zm2.53-58.22q-3.37-8-10.55-24a31.36,31.36,0,0,1-1.68-3.8l9.7-4.22Q160.09,24.24,166,36.89Zm11.81,40.93V72.33h54.43V82.46ZM201,104.39v-.84a58.92,58.92,0,0,0-2.11-10.13h19c6.47,0,9.84-2.38,10.12-7.17q.42-5.48,1.27-23.2V60.1H173.59L177,24.66h11.81L185.83,50h30.79l3-30.37H169.79V9.47h62.44L228.44,50h12.65q-.42,9.7-1.26,27.42c-.29,4.51-.42,7.74-.42,9.71Q239,104,219.15,104,210.72,104.39,201,104.39Z"/><path class="cls-2" d="M257.12,49.55V39.42H344V49.55H306.48V62.63h35v9.7h-35v19H328a56.15,56.15,0,0,0-5.91-7.18c-2.25-2.53-3.94-4.49-5.06-5.9l8.44-5.49q5.05,5.07,11.81,12.66l-8.44,5.91H351.2v9.28H250.8V91.32h43.87v-19H260.08v-9.7h34.59V49.55Zm-3.37-13.92V17.06h43a31.85,31.85,0,0,0-1.69-3.79,57.11,57.11,0,0,0-3.37-7.6L304.8,4.41q.84,2.12,3.37,7.59a23.76,23.76,0,0,0,2.11,5.06h38V35.63H336.86V27.19H264.72v8.44Z"/><path class="cls-2" d="M365.12,49.55V39.42H452V49.55H414.48V62.63h35v9.7h-35v19H436a55.26,55.26,0,0,0-5.91-7.18c-2.25-2.53-3.94-4.49-5.06-5.9l8.44-5.49q5.05,5.07,11.81,12.66l-8.44,5.91H459.2v9.28H358.8V91.32h43.87v-19H368.08v-9.7h34.59V49.55Zm-3.37-13.92V17.06h43a31.85,31.85,0,0,0-1.69-3.79,57.11,57.11,0,0,0-3.37-7.6L412.8,4.41q.84,2.12,3.37,7.59a24.31,24.31,0,0,0,2.11,5.06h38V35.63H444.86V27.19H372.72v8.44Z"/></g></g></svg>