<svg xmlns="http://www.w3.org/2000/svg" viewBox="0 0 459.63 106.08"><defs><style>.cls-1,.cls-2{fill:#498dff;}.cls-1{fill-rule:evenodd;}</style></defs><title>logolch</title><g id="图层_2" data-name="图层 2"><g id="图层_1-2" data-name="图层 1"><path id="_" data-name=" " class="cls-1" d="M98.24,104,59,5.78H39.3L0,104H22.41L49.12,35.25l19,49.11H41.56V104ZM79.84,10.21v7.72H90.06V28.14h7.72V17.93H108V10.21H97.78V0H90.06V10.21H79.84Z"/><path class="cls-2" d="M157.56,55.88q-8-7.6-16-13.92l7.17-8q8.43,6.33,16.45,13.08Zm-2.95,48.51-11.39-3q5.9-17.3,11-37.55,5.06,1.69,11,3.8Q157.14,93.43,154.61,104.39ZM160.09,28q-3.37-3.36-10.12-9.28c-2.53-2.25-4.51-3.93-5.91-5.06l7.17-7.59a9,9,0,0,1,2.11,1.68q8.86,6.76,14.35,11.39Zm11,78.05a49.61,49.61,0,0,0-8.44-6.75q13.08-9.27,13.5-24.89V59.25h10.55q0,8.86-.42,16Q185.82,94.27,171.06,106.08Zm-1.69-79.73V16.64h30.38a41.13,41.13,0,0,0-2.11-5.48c-.84-2.25-1.55-3.94-2.11-5.06l12.66-1.69q.84,1.7,2.53,5.9a42.49,42.49,0,0,1,2.11,6.33h27.84v9.71H205.23a190.67,190.67,0,0,1-19,18.14l33.33-.85-8-9.28L220,29.3q13.92,14.34,21.51,23.62l-9.7,5.91-5.06-6.33q-11.4,0-30.38.85-7.59.42-11.39.42a73.4,73.4,0,0,0-10.12.84H174l-4.22-9.28a18.21,18.21,0,0,0,2.54-1.69,19.62,19.62,0,0,0,5.06-3.37,91.25,91.25,0,0,0,13.5-13.92Zm27,76.78V59.25h11v43.88Zm31.22,0q-11,.41-10.54-10.13V58.83h10.12V90.89c0,2.26,1,3.23,3,3h2.11c2,0,3.09-1.12,3.38-3.38v-.84a113.2,113.2,0,0,0,.84-13.08c2.81.84,5.49,1.69,8,2.53a92.74,92.74,0,0,1-1.69,14.34q-1.69,10.13-10.55,9.71Z"/><path class="cls-2" d="M252.48,62.63V53.35h22.36v-7.6h10.55v7.6h20.25v9.28H285.39V74l3.8-4.64Q299.72,76.13,309,83.3l-6.75,8.44q-8.85-7.6-16.87-13.5v27H274.84V76.13a82.48,82.48,0,0,1-20.25,21.94L252.06,93q-1.69-2.94-2.53-4.64a83,83,0,0,0,23.63-25.73Zm.85-41.35a44.74,44.74,0,0,1-.85-4.64l-1.26-5.06q28.26-.42,54-2.95l2.11,9.7L283.7,19.6Q264.29,20.86,253.33,21.28Zm6.33,24.89q-3.81-9.69-7.18-17.71l8.86-2.54a4.86,4.86,0,0,1,.85,1.69q5.06,11.4,6.75,15.61ZM277,42a93.32,93.32,0,0,0-5.06-17.3L281.17,23q3,8,5.49,17.3Zm21.1,4.64-8.86-3.8q4.63-8.86,9.28-19.41l8.86,3a4.39,4.39,0,0,0-.85,1.68Q301.84,39.43,298.05,46.6Zm10.54,59.06a108.14,108.14,0,0,0-6.33-9.7A99.66,99.66,0,0,0,344,65.16l8,8Q335.16,93,308.59,105.66Zm5.49-65.39q-2.54-3.8-6.33-8.86a108.91,108.91,0,0,0,32.06-24l7.6,7.6A143.12,143.12,0,0,1,314.08,40.27Zm1.26,29.95A25.68,25.68,0,0,0,312,65.58a37.67,37.67,0,0,1-3-4.64,122,122,0,0,0,32.91-24.47l7.6,7.59A143.27,143.27,0,0,1,315.34,70.22Z"/><path class="cls-2" d="M361.33,72.75V23h16V5.25h10.55V23h15.61V65.58H387.91V85l8.43-1.27-2.53-11.39,7.6-1.69q1.68,5.49,4.21,14.77,1.28,4.22,1.69,5.91v-.85h19.41V23.39h-19V12.85h50.21V23.39H438.11V90.47h21.52v9.7H407.31V96.38l-7.59,1.69L398.88,93q-9.72.84-34.6,5.07a43.84,43.84,0,0,0-5.06.84l-2.11-10.13q5.89-.84,20.25-2.53V65.58h-6.75v7.17Zm9.28-40.08V55.46h7.59V32.67Zm24.05,0h-7.6V55.46h7.6Z"/></g></g></svg>